<svg width="76" height="61" viewBox="0 0 76 61" fill="none" xmlns="http://www.w3.org/2000/svg">
<path d="M57.6443 12.072C57.2717 12.4808 54.4408 17.0404 53.072 19.2691C52.9263 19.5426 52.4639 20.0459 51.7802 19.8704C46.3871 18.3466 35.6338 17.5602 33.8068 17.344C31.9797 17.1278 31.4244 17.1458 29.3108 17.344C27.0753 17.2575 25.394 17.5722 24.8327 17.7404C23.8655 18.0467 21.4652 18.5476 19.6024 18.1008C17.7395 17.7224 12.0613 15.1458 10.5208 14.317C8.9804 13.4882 7.19474 12.1667 6.24539 10.8875C5.29604 9.6082 6.33098 7.86648 7.01005 7.09188C7.67782 6.33018 10.8433 3.3622 11.2911 2.46131C13.0644 -0.998108 10.1924 -0.0238177 8.06083 0.714912C5.92927 1.45364 3.27615 3.61551 1.55657 6.22809C-0.163001 8.84067 0.220872 12.231 2.67532 15.6864C4.7506 18.608 12.1151 23.1998 13.4406 23.7043C14.7661 24.2088 14.8915 26.1367 14.6228 26.7853C14.4078 27.3042 13.5421 30.9895 13.1361 32.7672C13.0501 33.56 13.4048 33.8483 13.6376 34.0105C13.3868 34.2147 12.8136 35.0627 12.8136 36.3167C12.8566 38.0464 11.4821 40.2566 10.7896 41.1455C10.3955 41.656 9.32073 42.9221 8.17439 43.9022C7.02804 44.8824 6.98025 46.7971 7.09965 47.6319C7.38027 49.3316 8.00959 53.012 8.28183 54.1363C8.44304 55.3976 9.1416 57.3795 9.60732 58.4115C10.073 59.4434 12.5987 59.2534 12.8136 59.1453C12.9856 59.0588 14.1869 59.1092 14.766 59.1453C15.0049 59.1633 15.5148 59.0799 15.6437 58.602C16.0593 56.6106 14.6466 55.7921 13.8883 55.6318C13.6376 55.5657 13.1217 55.407 13.0644 55.3004C13.0071 55.1938 12.73 54.7442 12.5987 54.5327C12.33 53.4577 11.7676 51.203 11.6673 50.785C11.5419 50.2625 11.7748 49.8481 11.936 49.6679C12.0972 49.4877 12.3301 49.2023 12.4376 49.0013C12.545 48.8002 13.136 48.6049 13.8883 48.1222C14.6406 47.6396 16.4677 46.8571 17.4708 46.6409C18.4739 46.4247 22.9014 43.4351 23.0472 43.3018C23.1639 43.1951 23.2328 43.1996 23.2527 43.2151C23.2527 43.364 23.2315 43.6738 23.1466 43.7218C23.0427 43.7807 23.0279 43.9741 23.0086 44.2268L23.0075 44.2419C22.9876 44.5019 22.8749 45.562 22.6628 46.0287C22.4507 46.4954 22.0331 48.0022 21.9668 48.1222C21.9138 48.2182 21.7194 48.6156 21.6288 48.8023C21.589 48.9112 21.483 49.1437 21.3769 49.2023C21.2444 49.2757 21.2376 50.0824 21.3172 50.3424C21.3967 50.6025 21.9402 51.4292 22.1921 51.7226C22.444 52.0159 22.4837 52.2293 22.6015 52.3798C22.8856 52.5068 24.716 54.2845 25.7575 55.3004C26.7989 56.3163 27.9982 57.0561 28.8819 57.6839C29.5888 58.1862 30.6913 58.5052 31.1542 58.602H33.1109C33.4581 58.6231 34.3165 58.6147 34.9729 58.4115L35.0196 58.397C35.7959 58.1573 35.8554 58.1389 35.7935 56.7788C35.7304 55.3918 33.8052 55.0464 32.7638 55.1417C31.9306 55.2179 31.575 54.9703 31.5014 54.837C30.9859 54.3565 29.8666 53.3385 29.5131 53.1099C29.0712 52.8242 28.9767 52.5886 28.1876 51.5861C27.3985 50.5837 27.872 50.2211 28.1876 49.4909C28.5032 48.7608 30.2706 46.3481 31.1542 45.364C31.8612 44.5767 32.5218 43.7872 32.7638 43.491C32.8269 43.1558 33.2687 42.4855 34.5311 42.4855C37.8133 42.7181 48.0627 41.5949 48.9481 41.5511C49.6564 41.5161 49.9689 42.1594 50.0366 42.4855L52.6637 54.837C52.6395 55.1192 52.6289 55.7451 52.7799 55.9904C52.9686 56.297 53.1282 56.7788 53.1282 57.0561C53.1282 57.3335 53.6943 59.1147 53.97 59.5819C54.1907 59.9557 55.107 60.1464 55.5376 60.1951C56.3359 60.1902 58.0515 60.1834 58.5275 60.1951C59.1226 60.2097 59.9354 60.1513 60.5886 60.0783C61.2417 60.0053 61.2998 59.5235 61.4739 59.3191C61.7497 59.3191 63.056 59.3337 63.6366 59.3191C64.2172 59.3045 63.9849 59.3483 64.8848 59.1147C65.6047 58.9278 65.6783 58.4042 65.625 58.1657C65.5912 58.0927 65.5234 57.8942 65.5234 57.6839C65.5234 57.4211 65.4509 57.2313 64.9719 56.7788C64.3768 55.7422 63.1576 55.8882 62.3303 55.9904C61.7062 55.275 61.3723 53.8442 61.053 52.5886C60.7337 51.333 60.5595 47.0115 60.5595 45.9019C60.6408 45.0609 60.5934 44.5976 60.5595 44.4711C60.4096 43.2398 60.5131 40.4853 62.1271 39.3173C64.1446 37.8574 65.5815 35.3462 66.2637 34.076C66.8094 33.0599 68.3199 26.3819 69.0069 23.1699C69.123 22.6297 69.004 22.6297 70.7341 22.6297C73.0273 22.8633 73.8111 21.3887 73.9562 21.1843C74.1014 20.9799 74.3772 20.7171 74.8416 19.8704C75.3061 19.0236 75.3641 18.498 75.3786 18.0162C75.3932 17.5344 74.232 16.308 73.6514 15.724C73.0709 15.14 72.9402 13.4902 72.9548 12.585C72.9693 11.6798 71.6194 10.6141 71.155 10.2783C70.9924 9.96291 69.9273 9.26101 69.4151 8.94948C69.6961 8.29 69.797 5.57237 69.8618 5.07233C69.9165 4.65059 69.7008 4.82835 69.541 4.96003L69.541 4.96012L68.2709 6.10995C68.3132 5.44277 68.0676 4.27874 66.7467 4.96012C65.676 5.51246 64.0218 6.80098 62.8941 7.85598C62.2829 8.42779 61.9491 8.9044 61.6663 9.21874C60.4809 9.47426 58.11 11.561 57.6443 12.072Z" fill="#8C8C8C"/>
<path d="M74.497 18.0432C74.615 17.9443 74.9779 17.925 75.1445 17.9278C75.3013 17.9247 75.4642 18.0432 75.4888 18.1916C75.5503 18.5626 75.3534 19.0994 75.0872 19.4118C74.9989 19.5154 74.8904 19.4118 74.8495 19.2139C74.8085 19.016 74.3823 18.711 74.2101 18.5626C74.038 18.4142 74.3495 18.1669 74.497 18.0432Z" fill="white"/>
<path d="M71.775 14.6168C71.8887 15.058 71.5846 15.4119 71.4555 15.678C71.2812 15.8338 71.0587 15.7364 70.8652 15.678C70.7103 15.6313 70.407 15.0809 70.2747 14.8115C70.2554 14.7239 70.2109 14.5136 70.1877 14.3734C70.1586 14.1982 70.2263 14.0813 70.3327 14.0132C70.4392 13.945 70.5844 13.9645 71.1264 13.8672C71.6685 13.7698 71.7072 14.3539 71.775 14.6168Z" fill="white"/>
<path d="M66.8055 5.04193C65.5986 5.80089 63.9729 8.38509 63.7756 9.65601C63.7007 10.1384 63.5417 10.7988 63.7245 11.278C63.74 11.3187 63.6892 11.2836 63.6797 11.2599C63.5771 11.0042 63.5942 10.7003 63.6033 10.4309C63.6243 9.81384 63.6845 9.21299 63.8866 8.62603C64.3236 7.35732 65.5754 5.67768 66.8055 5.04193Z" fill="white"/>
<path d="M61.4097 59.0779C61.4302 58.6732 61.4292 58.1423 61.2067 57.7879C60.4813 56.6333 58.4036 57.458 57.7326 56.1735C57.2273 55.2061 57.4834 52.0275 57.5505 51.0234C57.6093 50.1442 57.6719 49.2653 57.7428 48.387C57.798 47.7018 57.8592 47.0172 57.9286 46.3334C58.168 43.9742 58.3441 40.1612 61.2269 39.3807C61.3281 39.3533 60.4582 39.8884 60.3512 39.9697C59.7723 40.4091 59.2751 41.0044 58.9691 41.6678C58.221 43.2901 58.0989 46.1502 57.9176 47.9359C57.8509 48.5934 57.7904 49.2515 57.7368 49.9102C57.6985 50.3802 57.6635 50.8504 57.6332 51.321C57.5757 52.2165 57.5264 55.1465 57.9798 56.0218C58.2939 56.6282 59.1247 56.6743 59.7019 56.8156C61.0459 57.1447 61.5881 57.6841 61.4097 59.0779Z" fill="white"/>
<path d="M33.5714 42.3058C32.2083 41.9154 30.4539 41.4471 29.0455 41.8189C27.3486 42.2669 25.4859 43.6498 23.6424 43.2246C23.4816 43.1875 23.4653 42.9522 23.6301 42.9062C23.8293 42.8505 24.1733 42.968 24.3919 42.9614C24.9437 42.9448 25.4907 42.8228 26.0213 42.6771C27.059 42.3923 28.076 41.8327 29.1359 41.6495C30.5655 41.4024 32.2164 41.8685 33.5714 42.3058Z" fill="white"/>
<path d="M67.921 9.87301C67.9202 9.87731 68.0135 9.34733 68.0581 9.08421C68.2117 8.1784 68.0016 7.29421 68.0662 6.38749C68.0723 6.30171 68.1262 6.4217 68.129 6.4524C68.1558 6.74888 68.2301 7.0394 68.2761 7.33314C68.3685 7.92169 68.3417 8.4796 68.1751 9.05226C68.0951 9.32728 67.9197 9.87753 67.921 9.87301ZM68.1224 6.37802C68.1218 6.37589 68.0779 6.04681 68.0791 6.04277C68.0803 6.03872 68.123 6.38014 68.1224 6.37802ZM69.6715 5.01809C69.715 4.97857 69.6414 5.11513 69.6376 5.12245C69.5183 5.34957 69.4581 5.61429 69.3931 5.86087C69.1308 6.85626 68.671 7.84136 68.5593 8.82557C68.5465 8.93783 68.379 8.9362 68.3823 8.8201C68.3905 8.53013 68.5685 8.05651 68.6309 7.71888C68.7428 7.1121 69.1272 6.53452 69.3054 5.93329C69.384 5.66824 69.4563 5.21363 69.6715 5.01809Z" fill="white"/>
<path d="M69.3796 8.91767C69.3827 8.92106 68.9317 8.74981 68.9163 8.74787C68.8901 8.74459 69.1498 8.66015 69.3796 8.91767Z" fill="white"/>
</svg>
