<svg width="84" height="60" viewBox="0 0 84 60" fill="none" xmlns="http://www.w3.org/2000/svg">
<path d="M32.5334 16.4874C29.8509 16.4514 24.3395 18.4555 21.9191 19.4621C18.8203 20.4537 16.2534 23.9692 15.2359 26.2003C14.2184 28.4313 10.9809 30.7975 8.96903 31.7215C6.95715 32.6455 2.19341 31.4285 0.852163 31.0229C-0.220838 30.6984 -0.0574211 31.3534 0.158412 31.7215C0.852163 32.5178 3.15541 34.1103 6.81842 34.1103C11.3972 34.1103 14.889 30.5947 15.4903 29.9187C15.9713 29.3778 16.292 29.0923 16.3922 29.0172V35.1019C16.0684 36.2737 15.8834 40.1273 15.8834 41.8175C15.8834 43.1696 14.5884 45.3105 13.9409 46.2119C13.7636 46.3922 13.4137 46.8384 13.4322 47.181C13.4507 47.5235 13.2703 49.2768 13.1778 50.1106C12.9851 51.1172 12.5765 53.4864 12.484 54.9107C12.3916 56.3349 12.7076 57.3671 12.8772 57.7051C13.2009 57.983 13.9594 58.62 14.4034 58.9446C14.8474 59.2691 15.5751 59.0798 15.8834 58.9446H17.6409C18.1497 58.9446 18.3116 59.1248 18.5891 59.1248C18.8666 59.1248 19.7222 58.6516 19.6759 57.9755C19.6297 57.2995 18.4966 56.1727 17.6409 55.7445C16.9564 55.402 16.7391 54.9708 16.7159 54.798C16.7082 54.0994 16.6974 52.4092 16.7159 51.2374C16.7344 50.0655 18.0957 47.8645 18.7741 46.9105C20.1693 45.1678 23.0568 41.5696 23.4453 41.1189C23.8338 40.6682 24.2239 40.5705 24.3703 40.578C24.3626 41.0588 24.3518 42.2547 24.3703 43.1921C24.3934 44.364 23.1216 47.4965 22.5203 48.2627C21.9191 49.0289 22.6591 50.7416 22.9597 51.2374C23.2603 51.7332 23.7691 52.8825 23.7459 53.5585C23.7274 54.0994 23.877 54.8957 23.9541 55.2262C24.247 55.6093 24.9207 56.4882 25.2722 56.9389C25.7116 57.5023 28.1166 57.2544 29.3884 57.2318C30.4059 57.2138 31.1074 56.9239 31.3309 56.7811C31.3926 56.706 31.4789 56.3935 31.3309 55.7445C31.1459 54.9332 29.8278 54.167 28.5791 54.0318C27.5801 53.9236 27.1453 53.2205 27.0528 52.8825C27.0451 52.4618 27.0343 51.4447 27.0528 50.7416C27.0713 50.0385 27.6464 49.0063 27.9316 48.5782C28.7024 47.3612 30.3366 44.7606 30.7066 44.0936C31.0766 43.4265 32.0787 40.5555 32.5334 39.2033C32.9774 37.2743 33.628 36.3488 33.8978 35.9131C33.9903 35.5901 34.3927 34.9306 35.2622 34.8765C36.3491 34.8089 39.0084 35.5751 40.5578 35.7328C42.1072 35.8906 48.6747 37.423 49.9466 37.6033C50.9641 37.7475 51.3572 39.4813 51.4266 40.3301C51.6039 43.5152 51.9585 50.0565 51.9585 50.7416C51.9585 51.4267 51.7118 51.7782 51.5885 51.8684C51.5037 52.289 51.459 53.1619 51.9585 53.2881C52.458 53.4143 52.7524 53.7013 52.8372 53.829C53.0145 54.6402 53.3691 56.5062 53.3691 57.4797C53.3691 58.4533 53.7391 58.9821 53.9241 59.1248C54.1399 59.2 54.826 59.4403 55.8435 59.8009C56.861 60.1615 57.6087 59.9511 57.8553 59.8009H59.6822C60.0291 59.861 60.7043 59.7603 60.6303 58.8769C60.5378 57.7727 59.0578 57.1417 57.5778 56.5558C56.3938 56.087 56.3753 54.3623 56.5141 53.5585C56.5295 52.0261 56.6158 48.2807 56.8378 45.5584C56.861 42.0428 57.3235 41.1865 57.5778 39.4512C57.7813 38.063 57.8476 38.8728 57.8553 39.4512L58.0635 44.3189C58.1868 45.01 58.4427 46.7663 58.4797 48.2627C58.5167 49.759 58.341 50.659 58.2485 50.9219C58.2639 51.2674 58.4473 51.963 59.0578 51.981C59.821 52.0036 59.8672 52.2064 60.1678 52.4318C60.4083 52.612 60.746 54.0093 60.8847 54.6853C61.2547 55.8121 62.226 56.5783 63.1741 56.7811C64.0066 56.6234 65.1628 56.9389 66.1341 56.9389C67.1053 56.9389 67.1053 56.3755 67.3135 56.1276C67.5216 55.8797 67.8018 55.891 68.2153 55.7445C68.4697 55.6544 68.3618 55.5567 68.2153 55.4741C68.1306 55.414 68.109 55.2803 67.961 55.2262C67.776 55.1586 67.2441 54.2797 66.7816 53.829C66.3191 53.3783 65.5791 53.5585 64.6772 53.5585C63.7753 53.5585 63.8447 52.6796 63.4747 52.2064C63.1787 51.8278 62.9968 50.9219 62.9428 50.5162C63.0045 48.7134 63.1371 44.7561 63.1741 43.3499C63.2203 41.5921 63.336 41.7048 63.4747 38.8878C63.6135 36.0709 63.8678 35.9357 64.1222 35.3948C64.3257 34.9621 65.4249 33.1863 65.9491 32.3525C66.5735 31.4736 67.4753 30.1891 67.4753 27.6651C67.4753 24.5101 68.2847 22.2791 68.4235 21.9636C68.5622 21.6481 69.5566 19.8227 69.996 18.6959C70.4353 17.5691 71.0135 17.0283 71.4297 16.7578C71.7072 17.0283 74.1354 17.4114 74.806 17.4114C75.4766 17.9973 76.841 17.9973 77.1185 17.6818C77.396 17.3663 78.691 17.2987 79.6854 17.186C80.6797 17.0733 82.6454 15.2705 83.501 13.3775C84.1855 11.8631 83.9712 11.154 83.7785 10.9887C82.707 10.3051 80.3884 8.87488 79.6854 8.62248C78.9824 8.37008 78.7295 7.67598 78.691 7.36048C78.7064 7.02245 78.728 6.19764 78.691 5.6027C78.6447 4.85903 76.7022 3.52942 75.731 2.71814C75.7495 1.47417 74.9833 0.892759 74.5978 0.757548C73.5958 0.532189 71.439 0.0679533 70.8285 0.0138803C70.1578 -0.0762622 69.441 0.284297 69.0478 0.757548C68.7333 1.13615 68.2231 1.2308 68.0072 1.2308C67.7683 1.14065 67.0868 0.919804 66.2728 0.757548C65.2553 0.554727 65.001 0.509655 64.5153 1.2308C64.1268 1.80771 62.3339 3.54445 61.486 4.34071C61.3472 5.06185 61.6525 6.8602 61.3935 6.93231C61.0697 7.02245 58.5722 9.81687 57.9247 10.831C57.4067 11.6423 56.3214 12.5362 55.8435 12.8817C52.6214 13.9709 45.946 16.217 45.021 16.4874C43.8647 16.8254 35.8866 16.5325 32.5334 16.4874Z" fill="#8C8C8C"/>
<g style="mix-blend-mode:lighten">
<path d="M61.6445 7.19731C61.6154 7.09537 61.74 7.27731 61.7505 7.30198C61.875 7.59629 62.0938 7.85736 62.4137 7.95602C62.8434 8.08856 63.3853 7.92424 63.6683 7.58362C63.7433 7.49327 63.8906 7.59468 63.8225 7.69161C63.5897 8.02278 63.0301 8.1645 62.6453 8.12258C62.1239 8.06579 61.7801 7.67092 61.6445 7.19731ZM63.7987 7.71508C63.7273 7.75902 63.6299 7.70068 63.6521 7.61627C63.6986 7.44012 63.9559 7.22208 64.0606 7.08458C64.0879 7.04865 64.1151 7.01261 64.1422 6.97649C64.6927 6.24257 65.0984 5.41909 65.6334 4.68038C65.6808 4.61498 65.7603 4.58052 65.8416 4.60311C66.1584 4.69115 65.785 5.14143 65.6975 5.27656C65.2855 5.91251 64.441 7.3197 63.7987 7.71508ZM65.9384 4.88774C65.697 5.17499 65.4877 4.81283 65.874 4.40322C66.3442 3.90473 66.9391 3.39302 67.6089 3.17608C67.9753 3.05738 69.055 2.98935 68.8637 3.67138C68.8007 3.89612 68.6426 3.39637 68.5339 3.34576C68.3098 3.24145 67.9931 3.30066 67.7701 3.37243C67.0003 3.62013 66.4336 4.29872 65.9384 4.88774Z" fill="white"/>
</g>
<g style="mix-blend-mode:lighten">
<path d="M16.5485 28.4019C16.5452 28.4222 16.5379 28.2314 16.5437 28.1495C16.5555 27.9829 16.5688 27.8167 16.5835 27.6511C16.6277 27.1542 16.6862 26.6619 16.7665 26.1771C17.0912 24.2158 17.792 22.2504 19.5675 20.9693C19.6074 20.9405 19.4745 21.1214 19.4456 21.1487C19.3246 21.2632 19.212 21.3826 19.1063 21.5057C18.7916 21.8719 18.5373 22.2704 18.3182 22.684C17.3888 24.4377 16.8691 26.4069 16.5485 28.4019Z" fill="white"/>
</g>
<g style="mix-blend-mode:lighten">
<path d="M57.9361 38.3353C57.9292 38.3584 57.9383 38.2431 57.9426 38.2234C57.981 38.0455 58.0237 37.8686 58.0701 37.6925C58.1826 37.2648 58.3158 36.8423 58.4563 36.4226C59.1082 34.4757 60.0874 32.4826 59.9224 30.3895C59.9223 30.3878 59.9523 30.5018 59.9569 30.5334C59.9849 30.725 60.0048 30.9178 60.0169 31.111C60.0475 31.5993 60.0255 32.0904 59.9602 32.5753C59.6824 34.6377 58.5179 36.3656 57.9361 38.3353ZM65.0968 33.24C64.2228 35.9165 61.3232 37.6174 58.6449 38.2216C60.9289 37.5472 64.1676 35.4957 65.0968 33.24Z" fill="white"/>
</g>
<g style="mix-blend-mode:lighten">
<path d="M50.7318 37.6058C50.7964 37.6599 50.7207 37.7565 50.6502 37.7099C50.3001 37.4787 50.0324 37.1062 49.8598 36.7362C49.5196 36.0067 49.478 35.1111 49.6781 34.3388C49.7129 34.2047 49.9168 34.2008 49.9447 34.3417C49.9779 34.5087 49.8749 34.7658 49.8548 34.9383C49.7875 35.5151 49.8182 36.1142 50.0382 36.659C50.1885 37.0312 50.4216 37.3463 50.7318 37.6058ZM49.9456 34.3873C49.939 34.4222 49.9207 34.4532 49.891 34.4742C49.5763 34.6965 49.7535 33.8946 49.7705 33.7881C49.9145 32.8894 50.0437 31.9706 50.0044 31.0589C50.004 31.0508 50.0047 31.043 50.0073 31.0353C50.022 30.9923 50.0808 30.9806 50.1116 31.0146C50.241 31.1576 50.1609 31.7179 50.1597 31.8918C50.1538 32.7202 50.0997 33.5719 49.9456 34.3873Z" fill="white"/>
</g>
<g style="mix-blend-mode:lighten">
<path d="M24.775 39.9566C24.6999 40.0495 24.7563 39.8501 24.7843 39.812C24.9616 39.5708 25.1377 39.3286 25.3124 39.0856C25.7283 38.5069 26.1367 37.9228 26.5291 37.3287C27.0703 36.509 27.7349 35.6012 28.0001 34.6476C28.1759 34.0151 28.034 32.8705 28.681 32.4424C29.217 32.0878 30.0346 32.3058 30.5957 32.4762C32.2078 32.966 33.5547 34.1318 35.2022 34.4985C35.2762 34.5149 34.7691 34.4719 34.5626 34.4127C34.1233 34.2869 33.6983 34.1181 33.2777 33.9432C32.3078 33.5397 30.0652 32.3821 29.0427 32.8115C28.6388 32.981 28.5116 34.595 28.2816 35.0741C27.4346 36.8383 26.0051 38.4359 24.775 39.9566Z" fill="white"/>
</g>
<g style="mix-blend-mode:lighten">
<path d="M75.1466 2.52793C75.1701 2.53916 74.8172 2.43481 74.6638 2.3704C74.3419 2.23521 74.0166 2.10488 73.6857 1.98315C72.2893 1.46934 70.7704 1.07811 69.1176 1.24881C69.0849 1.25219 69.0554 1.24127 69.0409 1.21766C68.9495 1.06811 69.4603 1.06628 69.5505 1.0625C69.9769 1.04465 70.3965 1.06954 70.8046 1.1221C72.375 1.32434 73.8206 1.89365 75.1466 2.52793Z" fill="white"/>
</g>
<g style="mix-blend-mode:lighten">
<path d="M76.0812 7.57198C76.0812 7.97026 76.0115 8.29313 75.5262 8.29313C75.0409 8.29313 74.6475 7.97026 74.6475 7.57198C74.6475 7.1737 75.0409 6.85083 75.5262 6.85083C76.0115 6.85083 76.0812 7.1737 76.0812 7.57198Z" fill="white"/>
</g>
<g style="mix-blend-mode:lighten">
<path d="M81.6406 12.102C81.0621 11.1445 82.3111 10.5037 83.0885 10.6016C83.3215 10.6584 83.5626 10.8705 83.7822 10.9847C84.1291 11.165 83.9903 12.0213 83.8516 12.472C83.736 12.8477 83.7128 13.1481 83.4122 13.2086C82.6457 13.2989 81.9118 12.5085 81.6406 12.102Z" fill="white"/>
</g>
</svg>
